
<svg xmlns="http://www.w3.org/2000/svg" x="0px" y="0px" viewBox="0 0 400 460">

	<path d="M392,65.1c-0.8-0.6-1.8-0.7-2.7-0.4l-42.2,15.1c-2.1-6.1-5.2-11.8-9.3-16.7l-29.9-35.2C298.2,16.5,284.1,10,269.1,10H128.7
		c-15,0-29.1,6.5-38.8,17.9L60.1,63.1C52.3,72.3,48,84,48,96v90.6l-39.3,14c-1.2,0.4-2,1.5-2,2.8v156.4c0,1,0.5,1.9,1.2,2.4
		c0.5,0.4,1.1,0.5,1.7,0.5c0.3,0,0.7-0.1,1-0.2l44.4-15.9c3,9.1,6.9,17.9,11.6,26.3c0,0,0,0.1,0.1,0.1c0,0,0,0.1,0,0.1
		c10.1,17.9,23.5,33.4,39.9,45.9c26.1,20,58.7,30.9,91.7,30.9c33,0,65.6-11,91.7-30.9c37.1-28.4,59.3-73.2,59.3-119.9v-57.5l42.1-15
		c1.2-0.4,2-1.5,2-2.8V67.5C393.3,66.5,392.8,65.6,392,65.1z M53.9,96c0-10.6,3.8-21,10.7-29.1l29.9-35.2
		c8.6-10.1,21.1-15.9,34.3-15.9h140.4c13.2,0,25.7,5.8,34.3,15.9l29.9,35.2c3.7,4.3,6.5,9.4,8.3,14.8l-4.4,1.6
		c-1.6-4.9-4.1-9.5-7.4-13.4l-29.9-35.2c-7.7-9-18.8-14.2-30.7-14.2H128.7c-11.8,0-23,5.2-30.7,14.2L68.2,70
		c-6.2,7.3-9.6,16.5-9.6,26v86.8l-4.7,1.7V96z M343.3,299.2c0,44.9-21.3,87.9-56.9,115.2c-25.1,19.2-56.4,29.7-88.1,29.7
		c-31.7,0-63-10.6-88.1-29.7c-15.7-12-28.6-26.9-38.3-44.1c0,0,0,0-0.1-0.1c0,0,0-0.1,0-0.1c-4.5-8.1-8.2-16.6-11.2-25.4l4.4-1.6
		c2.8,8.5,6.4,16.8,10.8,24.7c0,0,0,0.1,0.1,0.1c0,0,0,0.1,0,0.1c9.4,16.7,21.9,31.1,37.1,42.7c25.1,19.2,55.1,28.8,85.2,28.8
		c30.1,0,60.1-9.6,85.2-28.8c34.5-26.4,55.1-68,55.1-111.5v-53.7l4.7-1.7V299.2z M387.4,221.8l-182.8,65.3c-1.5,0.5-2.3,2.2-1.8,3.8
		c0.4,1.2,1.6,2,2.8,2c0.3,0,0.7-0.1,1-0.2l126.2-45.1v51.6c0,41.6-19.7,81.5-52.8,106.8c-48.1,36.7-115.2,36.8-163.3,0
		c-14.6-11.1-26.5-24.9-35.5-40.9c0,0,0,0-0.1-0.1c0,0,0-0.1,0-0.1c-4.2-7.6-7.7-15.6-10.4-23.8l83.6-29.8c1.5-0.5,2.3-2.2,1.8-3.8
		c-0.5-1.5-2.2-2.3-3.8-1.8L12.6,355.6V205.5l73.5-26.2c1.5-0.5,2.3-2.2,1.8-3.8c-0.5-1.5-2.2-2.3-3.8-1.8l-19.6,7V96
		c0-8.1,2.9-16,8.2-22.2l29.9-35.2c6.5-7.7,16.1-12.1,26.2-12.1h140.4c10.1,0,19.7,4.4,26.2,12.1l29.9,35.2c2.9,3.4,5,7.3,6.4,11.5
		l-56.8,20.3c-1.5,0.5-2.3,2.2-1.8,3.8c0.5,1.5,2.2,2.3,3.8,1.8l110.6-39.5V221.8z"/>
	<path d="M140.1,298.9L23.2,340.6V212.9l68.1-24.3c1.5-0.5,2.3-2.2,1.8-3.8c-0.5-1.5-2.2-2.3-3.8-1.8l-70,25c-1.2,0.4-2,1.5-2,2.8
		v133.9c0,1,0.5,1.9,1.2,2.4c0.5,0.4,1.1,0.5,1.7,0.5c0.3,0,0.7-0.1,1-0.2l120.8-43.1c1.5-0.5,2.3-2.2,1.8-3.8
		C143.3,299.1,141.6,298.3,140.1,298.9z"/>
	<path d="M320.9,106.7l55.9-20v127.6l-146.8,52.4c-1.5,0.5-2.3,2.2-1.8,3.8c0.4,1.2,1.6,2,2.8,2c0.3,0,0.7-0.1,1-0.2l148.8-53.1
		c1.2-0.4,2-1.5,2-2.8V82.5c0-1-0.5-1.9-1.2-2.4c-0.8-0.6-1.8-0.7-2.7-0.4l-59.8,21.4c-1.5,0.5-2.3,2.2-1.8,3.8
		C317.6,106.4,319.3,107.2,320.9,106.7z"/>
	<path d="M151.7,102.3c-1.2,2-1.2,18-0.2,18.2c1.2,0.2,9.6,1.9,9.6,0.8c0-2.2,2.2-12.2,5.1-16C163.8,103.3,153.2,100,151.7,102.3z"
		/>
	<path d="M95.1,199.8c0.2,5,13.3,7.9,13.3,6.6l-0.2-3.9c1.9,2.1,7.3,2.8,10.1,1c3.5-2.3,17-16.1,20.5-40.7c2.1-3.5,4.9-7.4,7.5-10.9
		c-0.3,10.3-0.1,20.4,1.4,22.6c4.6,6.6,18.7,12,19.9,8.4c1-3,3-10.2,5.1-18.6c-0.1,4.7-0.1,7.8-0.1,8.5c-0.1,3.1,14.3,3.6,13.9,2.6
		c-1.3-3.2-1.8-12.8-1.6-19.5c4.8,3.6,27.9,13,30.8,7.9c1.7-3.1,5.1-12.5,8.3-23.4c0.1,0.8,0.2,1.6,0.3,2.3
		c1.2,7.5,13.6,11.4,18.6,10.7c6.9-1,26.5-40,28-58.9c-0.9-1.2-6.5,1.5-6.7,2.7c-4.5,24.8-23.9,46.4-25.7,47.4c-2,1-2-17.3-1.5-25.5
		c1.8,0.2,7,0.3,11.4-1.9c6.4-3.2,9.5-15.5,7.5-28.2c-0.9-5-17.8-8.6-23-5.6c-5.7,3.4-8.7,18.5-9.5,33.6
		c-3.2,14.6-9.1,33.9-11.4,38.2c-1.6,1.1-16-4.7-21.9-9.6c20.3-6.1,29-35.9,29.1-44.5c0-3.8-15-10.6-16.3-7.2
		c-4.1,11.4-11.6,20.8-17.2,30.5c0.9-8.8,1.9-35,8-49.2c1.1-2.7-18.9-9.1-19-6.1c-0.5,6.5-1.1,40.4-1.4,67.7
		c-2.6,10.9-8.9,32-10.8,38.6c-1.7,6.2-6.2-13.9,1.2-46.9c0.6-2.4-15.5-3.3-15.9-1c-0.1,0.9-0.6,7.3-1,15.1
		c-0.2,0.1-0.3,0.2-0.4,0.2c-1.8,2.2-6,8.3-7.9,10.7c0.3-13.2-1.5-19.8-4.2-22.7c-1.9-1.9-11.1-5.7-14.7-1.4
		c-3.6,4.3-7.8,15.5-10.4,23.4c0.7-6.7,1.7-36.7,7.3-46c1.4-2.6-18.4-9.7-18.4-6.8C98.9,127.4,94.8,193.1,95.1,199.8z M247,93.5
		c2.4,0.6,3.8,15.1-1.8,18.2c-3.6,2.1-6.4,1.7-8.4,1.8C236.5,109.4,240.5,91.7,247,93.5z M186.3,131.4c10.3-13.4,13.9-21,15.9-23.8
		c1.9,13.2-4.5,27.6-16.7,32.5L186.3,131.4z M115.6,197c-3.6,1.4,0.8-7.9,6.4-14.5C120.3,188.7,118,195.8,115.6,197z M109,168.2
		c4.3-10.8,8.6-24.4,15.1-32.5c1.7,6.6,3.1,21.7,0.9,32.1c-9.4,14.1-14.3,22.9-17.6,26.7L109,168.2z"/>
	<path d="M138.8,193.7c-1.2,2-1.2,18-0.2,18.2c1.2,0.2,9.6,1.9,9.6,0.8c0-2.2,2.2-12.2,5.1-16C150.9,194.6,140.3,191.3,138.8,193.7z
		"/>
	<path d="M258.7,216.8c-1.5,1.9-2.6-35.2,2-48.8c1-3-11.1-3.5-13.3-2.2c0.4,1.6-0.3,4.1-0.7,6c-19.2-15.1-28.2,11.3-30.5,35.8
		c-2.7,9.3-7.2,18.8-10.1,25.5c2.1-24.7,0.6-37.8,2.9-47.1c0.8-3-12.9-4.6-15.2-3.9c-0.4,0.2,1.1,2.7,1.1,10
		c-22.2-19.3-34.5,13.2-36,41c-3,11.4-7.9,28-9.5,33.7c-1.7,6.2-6.2-13.9,1.2-46.9c0.6-2.4-15.5-3.3-15.9-1
		c-0.1,0.8-0.6,6.5-0.9,13.7c-2.8,4.4-7.9,11.3-11,13c-1.6,0.9,3.6-10.9,5.9-24c0.5-3.1-10-9-12.1-6c-4.3,6.4-12.2,32.5-14.1,51.6
		c-1.2-10.8,0.7-37,2.4-39.9c0.4-0.6-12.7-5.3-13.3,1.1c-0.3,3.9-0.1,12.6,0.4,22.3c-0.2,0.1-0.4,0.2-0.5,0.3
		c-1.8,2.2-6,8.3-7.9,10.7c0.3-13.2-1.5-19.8-4.2-22.7c-1.9-1.9-11.1-5.7-14.7-1.4c-3.6,4.3-7.8,15.5-10.4,23.4
		c0.7-6.7,1.7-36.7,7.3-46c1.4-2.6-18.4-9.7-18.4-6.8c0.9,27.3-3.2,93-2.9,99.7c0.2,5,13.3,7.9,13.3,6.7l-0.2-3.9
		c1.9,2.1,7.3,2.8,10.1,1c3.5-2.3,17-16.1,20.5-40.7c2.3-3.9,5.5-8.2,8.4-12c0.5,9.5,1,19,1.2,24.9c0.9,5.6,14.3,10.9,16.9,8.5
		c-4.9-42.7,5.9-57.8,6.5-59c3.6-5.4-0.2,6.7-1,13c-0.1,1.4,8,4.5,10.8,1.7c1.7-1.7,4.1-4.3,6.5-7.2c-0.4,11.2-0.3,22.8,1.3,25.1
		c4.6,6.6,18.7,12,19.9,8.4c1.1-3.1,3.2-11,5.5-20.1c0.3,1.3,0.6,2.5,1,3.6c2.9,9,14.3,10.9,18.9,10.2c1.9-0.3,12-32.6,16.4-62
		c-0.7,19.7-1.4,38.6-1.6,43.5c-14.7,25.3-34.9,52.8-32.9,56.2c5.3,9.4,23.6,10.5,28.4,3.5c6.9-10.3,15.5-48.2,16.8-64.2
		c2.8-5.8,5.9-13,8.6-20.6c0.3,9,1.6,15.7,3.6,16.8c3.1,1.6,10.7,4.8,13.3,2.4c3.5-3.4,9.9-25,13.1-34.2c-1,7.5,0.7,18.9,2,20.6
		c2.7,3.5,12.8,3.9,13.6,2.5c1.9-4.2,4.7-12.6,7.4-21.8c0.7,4.8,1.8,8.2,3.1,9.3c4.9,4,10.1,4.2,13.3,3.5
		c2.4-0.5,9.5-29.9,11.6-37.5c0.1,5.7-0.7,7.6,2.2,18.3c1.4,5.2,13.6,8.7,14.6,6.6c0.7-1.7,2.8-8.9,5.1-17.9
		c2.6,6.4,13.5,9.7,18.2,9.1c6.9-1,26.5-40,28-58.9c-0.9-1.2-6.5,1.5-6.7,2.7c-4.5,24.8-23.9,46.4-25.7,47.4c-2,1-2-17.3-1.5-25.5
		c1.8,0.2,7,0.3,11.4-1.9c6.4-3.2,9.5-15.5,7.5-28.2c-0.9-5-17.8-8.6-23-5.6c-6,3.5-9,20-9.6,35.8c-2.2,8.8-5.6,19.9-8.1,26.1
		c-3-2.6-3.9-42.4,5-81.8c0.4-4.6-21.9-5.6-20.7-3c4.4,8.9,4,33.8,2.9,42.8c-18.7-14.9-26.5,10.8-28.1,34.9
		C265.7,198.9,260.6,214.6,258.7,216.8z M60.9,304.9c-3.6,1.4,0.8-7.9,6.4-14.5C65.6,296.7,63.3,303.8,60.9,304.9z M70.3,275.8
		c-9.4,14.1-14.3,22.9-17.6,26.7l1.7-26.3c4.3-10.8,8.6-24.4,15.1-32.5C71.2,250.2,72.5,265.4,70.3,275.8z M174.8,259.7
		c-2.5-16.9,0.7-73,18.7-62.3C189,216.1,177.5,261.3,174.8,259.7z M173.2,303.9c-1.1-2.7,9-20.2,21.3-40.8
		C192.9,272.2,185.6,298.3,173.2,303.9z M229.5,230.6c-2.6-9.3-2-59.8,16-53.7C244.1,187.9,239.7,205.6,229.5,230.6z M340.9,142.3
		c2.4,0.6,3.8,15.1-1.8,18.2c-3.6,2.1-6.4,1.7-8.4,1.8C330.4,158.1,334.4,140.4,340.9,142.3z M295.4,158.6
		c-2.5,16-8.2,37.7-13.4,53.3C280,200.8,281.2,145.5,295.4,158.6z"/>
	<path d="M111.8,356.3l2.7,4.1c3.3-2.2,3.7-5.9,1.5-9.3c-2.2-3.4-6-4.6-9.1-2.5c-1.5,1-3.5,3.2-2.1,7.7l0.6,2.4
		c0.5,2.1,0,2.4-0.3,2.6c-1.1,0.7-2.2,0-2.9-1.1c-0.9-1.4-0.6-2.5,0.3-3.2l-2.7-4.2c-3.2,2.1-3.7,5.9-1.2,9.7
		c1.9,2.9,5.5,5.3,9.3,2.9c1.2-0.8,3.6-2.7,2.1-8.1l-0.7-2.3c-0.5-1.8,0-2.3,0.4-2.5c0.8-0.5,1.8-0.2,2.5,0.9
		C113.1,354.8,112.8,355.7,111.8,356.3z"/>
	<rect x="111.5" y="371.9" transform="matrix(0.7055 -0.7087 0.7087 0.7055 -229.5115 196.3979)" width="20.2" height="4.9"/>
	<polygon points="142.2,391.4 142.9,378.9 139.1,376.6 128.3,393.7 132.5,396.3 138.4,387 137.7,399.6 141.3,401.9 152.1,384.8 
		148,382.2 	"/>
	<path d="M169.8,396.5c1.8,0.5,3.2,2,3.6,3.7c0,0,5.1-1.7,4.7-1.6c-1-3.2-3.5-5.9-7-6.9c-5.5-1.6-11.2,1.5-12.8,7.1
		c-1.6,5.5,1.5,11.3,7,12.9c3.5,1,7,0.1,9.6-2l-3.1-3.8c-1.4,1.2-3.3,1.7-5.1,1.1c-2.9-0.8-4.4-3.8-3.6-6.7
		C163.9,397.3,166.9,395.7,169.8,396.5z"/>
	<polygon points="188.4,415.8 201.8,416.1 201.9,411.9 193.4,411.6 193.5,408 200.7,408.2 200.8,404 193.6,403.9 193.7,400 
		201.9,400.2 202.1,395.9 188.9,395.6 	"/>
	<path d="M238.7,404.3l2.4-5.8c0.6-1.6,0.8-3.5,0.2-5.2c-1.2-3.3-4.9-4.5-8.1-3.3c-3.7,1.4-5.1,4.5-4.3,8.4l4.2-0.9
		c-0.3-1.4-0.2-2.7,1.4-3.3c1.5-0.5,2.2,0.1,2.4,0.7c0.2,0.6,0.1,1.3-0.2,2l-4.2,11.4l0.9,2.5l12.7-4.8l-1.5-4L238.7,404.3z"/>
	<path d="M265.7,395.1c4.6-3.2,3.4-7.7,0.3-12.2c-3.2-4.6-7-7.3-11.6-4.1c-4.7,3.2-3.5,7.8-0.3,12.4
		C257.2,395.7,261,398.4,265.7,395.1z M256.9,382.6c1.5-1.1,3.4,0.6,5.1,3c1.7,2.4,2.5,4.8,1,5.8c-1.6,1.1-3.5-0.5-5.2-2.9
		C256.2,386.1,255.4,383.7,256.9,382.6z"/>
	<path d="M275.8,369.3c-0.9-1.1-1.5-2.3-0.4-3.6c1-1.2,2-1,2.5-0.5c0.5,0.4,0.7,1.1,0.8,1.8l1.7,12.1l2,1.7l8.9-10.2l-3.2-2.8
		l-4.1,4.7l-0.7-6.2c-0.2-1.7-0.9-3.5-2.3-4.7c-2.7-2.3-6.4-1.7-8.7,0.9c-2.6,2.9-2.4,6.4,0.2,9.5L275.8,369.3z"/>
	<path d="M291.3,353.8c4.9,2.5,9.5,3,12.1-2c2.6-5-0.6-8.4-5.5-10.9c-5-2.5-9.6-3.1-12.1,1.9C283.2,347.8,286.4,351.3,291.3,353.8z
		 M289.9,344.8c0.8-1.6,3.3-1.1,5.9,0.2c2.6,1.3,4.5,3,3.6,4.7c-0.9,1.7-3.3,1.2-5.9-0.1C290.8,348.3,289,346.5,289.9,344.8z"/>
	<polygon points="137.4,55.5 140.6,55.5 140.6,45.1 143.9,45.1 143.9,42.3 134,42.3 134,45.1 137.4,45.1 	"/>
	<path d="M157.3,55.6c3.7,0,6.7-3,6.7-6.7c0-3.7-3-6.7-6.7-6.7c-3.7,0-6.7,3-6.7,6.7C150.6,52.6,153.6,55.6,157.3,55.6z M157.3,45.4
		c1.9,0,3.5,1.6,3.5,3.5c0,2-1.6,3.5-3.5,3.5c-1.9,0-3.5-1.6-3.5-3.5C153.8,47,155.4,45.4,157.3,45.4z"/>
	<path d="M175.1,51.1h0.3l2.8,4.4h3.7l-3.2-4.5c2.1-0.5,3.1-2.3,3.1-4.2c0-2.2-1.4-4.4-4.5-4.4h-5.4v13.1h3.2V51.1z M175.1,45.1h2.1
		c1,0,1.4,0.8,1.4,1.6c0,0.8-0.4,1.6-1.4,1.6h-2.1V45.1z"/>
	<path d="M195.8,55.6c3.7,0,6.7-3,6.7-6.7c0-3.7-3-6.7-6.7-6.7c-3.7,0-6.7,3-6.7,6.7C189.1,52.6,192.1,55.6,195.8,55.6z M195.8,45.4
		c1.9,0,3.5,1.6,3.5,3.5c0,2-1.6,3.5-3.5,3.5c-1.9,0-3.5-1.6-3.5-3.5C192.3,47,193.8,45.4,195.8,45.4z"/>
	<polygon points="213.6,48.3 217.6,55.5 220.4,55.5 220.4,42.3 217.2,42.3 217.2,49.4 213.3,42.3 210.4,42.3 210.4,55.5 213.6,55.5 
			"/>
	<polygon points="231.4,55.5 234.6,55.5 234.6,45.1 238,45.1 238,42.3 228,42.3 228,45.1 231.4,45.1 	"/>
	<path d="M251.4,55.6c3.7,0,6.7-3,6.7-6.7c0-3.7-3-6.7-6.7-6.7c-3.7,0-6.7,3-6.7,6.7C244.7,52.6,247.7,55.6,251.4,55.6z M251.4,45.4
		c1.9,0,3.5,1.6,3.5,3.5c0,2-1.6,3.5-3.5,3.5c-1.9,0-3.5-1.6-3.5-3.5C247.9,47,249.4,45.4,251.4,45.4z"/>
	<path d="M188.1,324.7c1.5-0.2,2.1-0.7,2.6-1.1c0.5-0.4,0.8-0.6,2.6-0.4c1.4,0.2,2.3,0.1,2.7-0.3l0.8-0.5l-0.4-0.6
		c-1.3-1.9-4.7-1.8-8.2-1.8c-1.7,0-3.4,0.1-4.9-0.1c-0.3,0-0.7-0.1-1-0.2c-0.4-0.1-0.8-0.2-1.1-0.2l-0.3,0c-0.2,0-0.2,0-0.7,0
		c-0.6,0-0.7,0.1-1.1,0.3l-0.3,0.1l-0.1,0.3c-0.4,1.5,1,2.9,4.2,4.1c1.1,0.5,1.8,0.7,2.3,0.8c0.6,1.4,2,7.1,1.9,7.8l-3.8,6.5
		c-1-0.2-1.9-0.5-2.7-0.7c-2.7-0.8-5-1.5-9.5-0.4c-5.7,1.3-10.5,5-13.2,10.2c-2.7,5.2-2.9,11.2-0.6,16.9c2.1,5.1,6.6,9.2,12.1,11
		c2,0.6,4,0.9,5.9,0.9c3.9,0,7.7-1.2,11.3-3.4c2.7-1.7,4.2-4.1,5.5-6c0.3-0.5,0.6-1,0.9-1.4c0.4,0.1,0.7,0.2,1,0.3
		c1.7,0.5,2.3,0.7,4.7,0.3c0.2,0.4,0.3,0.7,0.6,1.1l-0.1,0c-0.5,0.2-0.5,0.6-0.5,1.9l0,0.5l0.5,0.2c1.5,0.6,3.3,0.6,5.1,0l0.5-0.3
		l0-0.5c0.1-1.1,0.1-1.4-0.3-1.7l-0.5-0.2l-0.4,0.1c0,0-0.7-0.1-2.1-2.8l0.4-0.5c2.3-3.1,1.4-5.3,0.7-7c-0.1-0.2-0.2-0.4-0.2-0.6
		c0.3-0.3,0.7-0.6,1-1c0.4-0.3,0.8-0.7,1.2-1.1l9.7-10.5c-4.9,5.9-6.1,13.7-3.1,20.3c3.4,7.4,10.1,12,18,12.2c0.2,0,0.3,0,0.5,0
		c7.5,0,14.4-4.2,17.9-11c2.6-5,2.9-10.9,0.8-16.1c-2.7-6.8-9.3-12.4-17.7-12.8c1.5-1,2.1-2.3,2.3-3.3c0.4-1.8-0.2-3.9-1.4-5.2
		c-1.1-1.1-11.7-5.2-14.1-4.1l-0.2,0.1c-0.8,0.7-0.4,2,0,3.3c0.1,0.4,0.3,0.9,0.3,1.2l0,0.2l0.1,0.1c0,0,0,0,0,0l-27.8,0.9
		L188.1,324.7z M223.5,337.8l0.2,0.4c-0.1,0-0.1,0-0.2,0.1c-0.6-1.9-2.3-7.6-3-10c2.6,0.6,7.5,2,8.4,3.2c0.6,0.8,0.5,1.6,0.4,2.1
		c-0.2,0.7-0.6,1.3-1.1,1.6c-0.4,0.2-1.1,0.2-1.7,0.3c-1.2,0.1-2.3,0.2-2.8,0.9C223.3,336.7,223.3,337.3,223.5,337.8z M214.7,350.9
		c0.9-1.9,2-3.5,3.3-4.8c1.6-1.6,2.4-2,3.2-2.5c0.2-0.1,0.5-0.3,0.7-0.4c0.4,0.8,0.7,1.7,1,2.4c0.4,1,1.3,3,2.2,5
		c0.8,1.8,1.9,4.1,2,4.6c0.1,0.3,0.1,0.5,0,0.8c-0.3,1.1-0.2,2.6,0.8,3.6c0.5,0.4,1.3,0.9,2.6,0.5c1.1-0.3,1.8-1.3,1.9-2.4
		c0.1-1.2-0.5-2.3-1.6-2.9c-0.6-0.3-1-0.4-1.3-0.4c0,0,0,0,0,0c0,0,0,0,0-0.1c-0.6-1.4-1.2-2.9-1.8-4.3c-0.7-1.7-1.5-3.5-2.2-5.4
		c-0.4-1.1-0.6-2.1-0.8-2.8c4.9-1.1,8-1.1,12.4,1.1c5.6,2.9,9,8.6,8.7,14.9c-0.2,6.3-3.9,11.6-9.8,14.2c-7.4,3.2-14.1,0.2-17.9-3.6
		C213.3,363.6,212,356.7,214.7,350.9z M177.6,354.8c1.4-2.6,4.9-8.9,6.1-10.7c4,2.5,7.4,7.6,7.1,10.4
		C188.1,354.8,180.6,355,177.6,354.8z M177.8,348.9c-0.8,1.4-1.6,2.7-2.1,3.5c-1,1.8-1.6,2.5-1.9,2.7c-1.7,1.3-1.8,2.5-1.7,3.2
		c0.3,1.2,1.6,2.3,3.6,2.7l13.4,4.2c-1,2.2-3.4,4.4-5.4,5.7c-2.5,1.7-6.1,2.7-9.2,2.5c-6.7-0.4-12-4.3-14.2-10.5
		c-2.2-6.2-0.7-12.9,3.9-17.1c3.1-2.8,6.4-4.2,10.4-4.2c2,0,4.2,0.4,6.7,1.1C180.6,344.4,179.1,346.8,177.8,348.9z M190.6,361.4
		l-0.5,1.9l-11.1-3.6c2,0.1,4.6,0.6,6.7,1C187.5,361,189.3,361.3,190.6,361.4z M191.1,358c-2.2,0.1-4.6-0.2-6.6-0.4l-0.6-0.1
		c-0.5-0.1-1.1-0.1-1.7-0.2c-1.1-0.1-2.3-0.2-3.2-0.4c2-0.1,5.1-0.2,7.4-0.2c1.9,0,3.6-0.1,4.7-0.1L191.1,358z M185.5,340.8
		c0.5-1.2,1.7-3.4,2.6-4.8c0.7,2.1,2,6.3,2.9,9.7c-0.3-0.5-0.7-0.9-1-1.3c-1.4-1.6-2.5-2.3-3.8-3.2
		C185.9,341.1,185.7,340.9,185.5,340.8z M197.2,356.6c0.3,0,0.6,0.1,0.9,0.2c-0.2,0.3-0.4,0.6-0.6,0.8
		C197.4,357.4,197.3,357.1,197.2,356.6z M200.1,363c-0.7-1-0.9-2-0.6-2.8c0.2-0.5,0.6-0.8,1-0.9C200.8,360.7,200.9,361.8,200.1,363z
		 M194.5,362.7C194.5,362.7,194.5,362.7,194.5,362.7c1.4,0,1.9,0.8,2.6,1.8c0,0.1,0.1,0.1,0.1,0.2c-1.1,0.1-2-0.2-2.8-0.6
		c-0.1-0.1-0.2-0.1-0.3-0.2L194.5,362.7z M218.9,334.4c-0.9,1.2-1.9,2.2-2.9,3.2c-0.6,0.7-1.3,1.3-2,2.1c-0.3,0.4-0.8,0.9-1.3,1.3
		c-0.4,0.4-0.8,0.8-1.2,1.2l-7.3,7.9c-0.5,0.6-1.1,1.2-1.6,1.7c-1,1-2,2.1-2.8,3.3c-0.2-0.1-0.4-0.1-0.6-0.2
		c-0.8-0.3-1.3-0.5-2.6-0.5c-0.4-1.3-1-3.6-1.8-6.1c-1.5-4.9-3.7-12.1-4-14.5l23.8-0.8h0c0.9,0,1.5-0.1,2.1-0.2
		C218.4,332.5,218.5,332.5,218.9,334.4z M220.1,338.1c0.2,0.4,0.4,0.7,0.5,1.3c-0.4,0.3-1,0.7-1.5,1c-0.9,0.5-1.8,1.1-2.4,1.6
		c-0.3,0.3-0.7,0.6-1,0.9L220.1,338.1z"/>

</svg>
