<?xml version="1.0" encoding="UTF-8" standalone="no"?>
<!DOCTYPE svg PUBLIC "-//W3C//DTD SVG 1.1//EN" "http://www.w3.org/Graphics/SVG/1.1/DTD/svg11.dtd">
<svg width="100%" height="100%" viewBox="0 0 938 654" version="1.1" xmlns="http://www.w3.org/2000/svg" xmlns:xlink="http://www.w3.org/1999/xlink" xml:space="preserve" xmlns:serif="http://www.serif.com/" style="fill-rule:evenodd;clip-rule:evenodd;stroke-linejoin:round;stroke-miterlimit:2;">
    <path d="M195.992,26.994L200.088,364.913L377.078,451.126L372.982,113.208L195.992,26.994Z" style="fill:rgb(242,242,242);fill-rule:nonzero;"/>
    <path d="M142.208,0L9.957,271.502L189.403,358.913L185.307,20.994L142.208,0Z" style="fill:rgb(242,242,242);fill-rule:nonzero;"/>
    <path d="M937.597,381.414L580.403,207.422L584.499,545.34L805.345,652.916L937.597,381.414Z" style="fill:rgb(242,242,242);fill-rule:nonzero;"/>
    <path d="M388.982,113.208L393.078,451.126L570.069,537.34L565.973,199.422L388.982,113.208Z" style="fill:rgb(242,242,242);fill-rule:nonzero;"/>
    <g transform="matrix(1,0,0,1,-131.202,-123.278)">
        <path d="M581.702,506.222L576.702,618.222C576.702,618.222 589.702,724.222 586.702,727.222C583.702,730.222 575.702,736.222 581.702,743.222C587.702,750.222 609.702,755.222 610.702,751.222C611.702,747.222 613.702,633.222 613.702,633.222L620.702,498.222L581.702,506.222Z" style="fill:rgb(47,46,65);fill-rule:nonzero;"/>
    </g>
    <g transform="matrix(1,0,0,1,-131.202,-123.278)">
        <path d="M581.702,506.222L576.702,618.222C576.702,618.222 589.702,724.222 586.702,727.222C583.702,730.222 575.702,736.222 581.702,743.222C587.702,750.222 609.702,755.222 610.702,751.222C611.702,747.222 613.702,633.222 613.702,633.222L620.702,498.222L581.702,506.222Z" style="fill-opacity:0.2;fill-rule:nonzero;"/>
    </g>
    <g transform="matrix(1,0,0,1,-131.202,-123.278)">
        <path d="M586.702,741.222C586.702,741.222 561.702,760.222 558.702,760.222C555.702,760.222 528.702,769.222 547.702,773.222C566.702,777.222 612.702,775.222 613.702,769.222C614.702,763.222 610.702,745.014 610.702,745.014L586.702,741.222Z" style="fill:rgb(47,46,65);fill-rule:nonzero;"/>
    </g>
    <g transform="matrix(1,0,0,1,-131.202,-123.278)">
        <path d="M586.702,741.222C586.702,741.222 561.702,760.222 558.702,760.222C555.702,760.222 528.702,769.222 547.702,773.222C566.702,777.222 612.702,775.222 613.702,769.222C614.702,763.222 610.702,745.014 610.702,745.014L586.702,741.222Z" style="fill-opacity:0.2;fill-rule:nonzero;"/>
    </g>
    <g transform="matrix(1,0,0,1,-131.202,-123.278)">
        <path d="M524.702,422.222C524.702,422.222 513.702,426.222 513.702,429.222C513.702,432.222 503.702,470.222 501.702,472.222C499.702,474.222 498.702,483.222 498.702,483.222C498.702,483.222 488.702,506.222 490.702,506.222C492.702,506.222 509.702,502.222 510.702,506.222C511.702,510.222 519.702,481.222 519.702,481.222L536.702,447.222L524.702,422.222Z" style="fill:rgb(108,99,255);fill-rule:nonzero;"/>
    </g>
    <g transform="matrix(1,0,0,1,-131.202,-123.278)">
        <path d="M490.702,510.222C490.702,510.222 493.702,532.222 501.702,534.222C509.702,536.222 501.702,506.222 501.702,506.222L490.702,510.222Z" style="fill:rgb(110,84,63);fill-rule:nonzero;"/>
    </g>
    <g transform="matrix(1,0,0,1,-131.202,-123.278)">
        <path d="M516.702,410.222C516.702,410.222 522.702,423.222 525.702,430.222C528.702,437.222 556.702,412.222 556.702,412.222C556.702,412.222 541.702,401.222 541.702,396.222C541.702,391.222 516.702,410.222 516.702,410.222Z" style="fill:rgb(110,84,63);fill-rule:nonzero;"/>
    </g>
    <g transform="matrix(1,0,0,1,-131.202,-123.278)">
        <path d="M228.241,735.278C234.947,760.068 257.918,775.422 257.918,775.422C257.918,775.422 270.016,750.582 263.309,725.791C256.603,701 233.632,685.647 233.632,685.647C233.632,685.647 221.535,710.487 228.241,735.278Z" style="fill:rgb(63,61,86);fill-rule:nonzero;"/>
    </g>
    <g transform="matrix(1,0,0,1,-131.202,-123.278)">
        <path d="M238.095,729.95C256.498,747.864 258.745,775.402 258.745,775.402C258.745,775.402 231.157,773.895 212.755,755.981C194.352,738.068 192.105,710.53 192.105,710.53C192.105,710.53 219.693,712.036 238.095,729.95Z" style="fill:rgb(108,99,255);fill-rule:nonzero;"/>
    </g>
    <g transform="matrix(1,0,0,1,-131.202,-123.278)">
        <path d="M466.702,776.222C416.781,776.222 375.702,735.143 375.702,685.222C375.702,635.301 416.781,594.222 466.702,594.222C516.623,594.222 557.702,635.301 557.702,685.222C557.645,735.122 516.602,776.166 466.702,776.222ZM466.702,596.222C417.878,596.222 377.702,636.398 377.702,685.222C377.702,734.046 417.878,774.222 466.702,774.222C515.526,774.222 555.702,734.046 555.702,685.222C555.647,636.419 515.505,596.277 466.702,596.222Z" style="fill:rgb(47,46,65);fill-rule:nonzero;"/>
    </g>
    <g transform="matrix(1,0,0,1,-131.202,-123.278)">
        <path d="M746.702,776.222C696.781,776.222 655.702,735.143 655.702,685.222C655.702,635.301 696.781,594.222 746.702,594.222C796.623,594.222 837.702,635.301 837.702,685.222C837.645,735.122 796.602,776.166 746.702,776.222ZM746.702,596.222C697.878,596.222 657.702,636.398 657.702,685.222C657.702,734.046 697.878,774.222 746.702,774.222C795.526,774.222 835.702,734.046 835.702,685.222C835.647,636.419 795.505,596.277 746.702,596.222Z" style="fill:rgb(47,46,65);fill-rule:nonzero;"/>
    </g>
    <circle cx="335.5" cy="561.945" r="6" style="fill:rgb(47,46,65);"/>
    <circle cx="617.5" cy="561.945" r="6" style="fill:rgb(47,46,65);"/>
    <path d="M344.42,553.337L342.58,552.552L394.845,429.931L543.055,432.955L543.342,433.405L616.342,547.405L614.658,548.484L541.945,434.934L396.155,431.958L344.42,553.337Z" style="fill:rgb(47,46,65);fill-rule:nonzero;"/>
    <path d="M500.125,576.128L538.538,440.672L540.462,441.217L502.875,573.761L603.374,560.952L603.626,562.937L500.125,576.128Z" style="fill:rgb(47,46,65);fill-rule:nonzero;"/>
    <g transform="matrix(0.713873,-0.700275,0.700275,0.713873,-413.074,460.305)">
        <rect x="572.202" y="563.18" width="2" height="147.085" style="fill:rgb(47,46,65);"/>
    </g>
    <g transform="matrix(0.262704,-0.964876,0.964876,0.262704,-155.677,931.136)">
        <rect x="666.3" y="542.222" width="22.804" height="2" style="fill:rgb(47,46,65);"/>
    </g>
    <path d="M398.476,424.166L396.524,423.723L401.247,402.945L384.5,402.945L384.5,389.945L386.5,389.945L386.5,400.945L403.753,400.945L398.476,424.166Z" style="fill:rgb(47,46,65);fill-rule:nonzero;"/>
    <g transform="matrix(1,0,0,1,-131.202,-123.278)">
        <path d="M643.702,512.222C643.702,512.222 643.702,506.222 656.702,509.222C669.702,512.222 709.702,520.222 712.702,519.222C715.702,518.222 714.702,525.222 701.702,528.222C688.702,531.222 673.702,524.222 670.702,522.222C667.702,520.222 643.702,512.222 643.702,512.222Z" style="fill:rgb(47,46,65);fill-rule:nonzero;"/>
    </g>
    <rect x="450.5" y="567.945" width="26" height="10" style="fill:rgb(108,99,255);"/>
    <g transform="matrix(1,0,0,1,-131.202,-123.278)">
        <path d="M632.702,718.222C621.73,718.222 612.702,709.194 612.702,698.222C612.702,687.251 621.73,678.222 632.702,678.222C643.673,678.222 652.702,687.251 652.702,698.222C652.69,709.189 643.669,718.21 632.702,718.222ZM632.702,680.222C622.827,680.222 614.702,688.348 614.702,698.222C614.702,708.097 622.827,716.222 632.702,716.222C642.576,716.222 650.702,708.097 650.702,698.222C650.69,688.352 642.572,680.234 632.702,680.222Z" style="fill:rgb(47,46,65);fill-rule:nonzero;"/>
    </g>
    <circle cx="394.5" cy="272.945" r="24" style="fill:rgb(110,84,63);"/>
    <g transform="matrix(1,0,0,1,-131.202,-123.278)">
        <path d="M601.702,508.222C601.702,508.222 532.702,548.222 533.702,561.222C534.702,574.222 586.702,645.222 586.702,645.222C586.702,645.222 590.702,666.222 594.702,666.222C598.702,666.222 623.702,675.222 624.702,669.222C625.702,663.222 616.702,656.222 617.702,652.222C618.702,648.222 573.702,575.222 573.702,575.222C573.702,575.222 670.009,539.222 649.855,508.222C629.702,477.222 601.702,508.222 601.702,508.222Z" style="fill:rgb(47,46,65);fill-rule:nonzero;"/>
    </g>
    <g transform="matrix(1,0,0,1,-131.202,-123.278)">
        <path d="M603.702,662.222C603.702,662.222 591.702,665.222 589.702,669.222C587.702,673.222 552.702,686.222 562.702,689.222C572.702,692.222 630.702,693.222 632.702,691.222C634.702,689.222 632.702,666.01 624.702,666.116C616.702,666.222 607.702,669.222 603.702,662.222Z" style="fill:rgb(47,46,65);fill-rule:nonzero;"/>
    </g>
    <g transform="matrix(1,0,0,1,-131.202,-123.278)">
        <path d="M525.702,433.222L548.202,405.722C548.202,405.722 573.702,398.222 584.702,413.222C595.702,428.222 625.702,465.222 635.702,473.222C645.702,481.222 659.702,512.222 654.702,513.222C649.702,514.222 621.702,502.222 610.702,510.222C599.702,518.222 578.702,519.222 577.702,515.222C576.702,511.222 516.702,444.222 516.702,435.222C516.702,426.222 523.095,424.291 523.095,424.291L525.702,433.222Z" style="fill:rgb(108,99,255);fill-rule:nonzero;"/>
    </g>
    <g transform="matrix(0.942812,0.333325,-0.333325,0.942812,68.703,-267.995)">
        <path d="M540.702,510.222C540.702,508.567 539.357,507.222 537.702,507.222L505.702,507.222C504.046,507.222 502.702,508.567 502.702,510.222C502.702,511.878 504.046,513.222 505.702,513.222L537.702,513.222C539.357,513.222 540.702,511.878 540.702,510.222Z" style="fill:rgb(47,46,65);"/>
    </g>
    <g transform="matrix(1,0,0,1,-131.202,-123.278)">
        <path d="M469.702,500.222C469.702,500.222 434.702,510.222 437.702,521.222C440.702,532.222 472.702,508.222 472.702,508.222L469.702,500.222Z" style="fill:rgb(110,84,63);fill-rule:nonzero;"/>
    </g>
    <g transform="matrix(1,0,0,1,-131.202,-123.278)">
        <path d="M560.702,413.222C560.702,413.222 546.702,425.222 543.702,439.222C540.702,453.222 525.702,478.222 525.702,478.222L464.702,498.222C464.702,498.222 460.702,517.222 466.702,517.222C472.702,517.222 539.702,503.222 541.702,500.222C543.702,497.222 586.702,440.222 586.702,440.222C586.702,440.222 590.702,409.222 560.702,413.222Z" style="fill:rgb(108,99,255);fill-rule:nonzero;"/>
    </g>
    <g transform="matrix(1,0,0,1,-131.202,-123.278)">
        <path d="M510.795,368.444C510.204,368.953 509.496,369.309 508.734,369.478C507.943,369.619 507.176,369.087 507.03,368.297C506.589,369.52 505.77,370.572 504.691,371.297C503.546,371.894 501.775,371.393 501.61,370.113C501.443,371.085 501.013,371.993 500.366,372.739C499.669,373.476 498.492,373.515 497.747,372.826C498.248,375.567 497.939,378.385 498.096,381.167C498.254,383.948 498.996,386.897 501.097,388.726C504.162,391.394 508.771,390.735 512.802,390.23C513.412,390.102 514.045,390.137 514.637,390.33C516.146,390.973 516.078,393.075 516.098,394.715C516.351,400.635 520.887,405.555 526.767,406.286C528.367,406.533 530.001,406.134 531.307,405.178C532.451,404.208 533.036,402.627 534.348,401.898C536.481,400.712 539.069,402.441 540.629,404.319C542.189,406.196 543.726,408.505 546.143,408.849C549.339,409.303 551.773,406.046 552.967,403.047C556.295,394.558 556.052,385.075 552.295,376.767C545.622,362.22 522.825,359.92 510.795,368.444Z" style="fill:rgb(10,9,40);fill-rule:nonzero;"/>
    </g>
    <g transform="matrix(1,0,0,1,-131.202,-123.278)">
        <path d="M933.09,776.181L931.313,775.263C954.395,730.639 942.052,672.688 927.634,631.931C917.844,604.537 905.357,578.182 890.357,553.256L892.047,552.188C907.125,577.241 919.678,603.729 929.519,631.263C944.07,672.393 956.5,730.922 933.09,776.181Z" style="fill:rgb(47,46,65);fill-rule:nonzero;"/>
    </g>
    <g transform="matrix(0.17975,-0.98371,0.98371,0.17975,65.0525,1288.53)">
        <rect x="908.612" y="587.223" width="72.18" height="1.999" style="fill:rgb(47,46,65);"/>
    </g>
    <g transform="matrix(0.732071,-0.681228,0.681228,0.732071,-333.559,661.66)">
        <rect x="895.701" y="600.547" width="2.001" height="98.351" style="fill:rgb(47,46,65);"/>
    </g>
    <g transform="matrix(0.585847,-0.810422,0.810422,0.585847,-310.66,958)">
        <rect x="939.197" y="715.222" width="58.009" height="2" style="fill:rgb(47,46,65);"/>
    </g>
    <circle cx="825" cy="400.445" r="10" style="fill:rgb(108,99,255);"/>
    <circle cx="716" cy="477.445" r="10" style="fill:rgb(63,61,86);"/>
    <circle cx="760" cy="487.445" r="10" style="fill:rgb(63,61,86);"/>
    <circle cx="740" cy="526.445" r="10" style="fill:rgb(108,99,255);"/>
    <circle cx="865" cy="551.445" r="10" style="fill:rgb(63,61,86);"/>
    <circle cx="832" cy="562.445" r="10" style="fill:rgb(63,61,86);"/>
    <circle cx="855" cy="594.445" r="10" style="fill:rgb(63,61,86);"/>
    <circle cx="750" cy="412.445" r="10" style="fill:rgb(63,61,86);"/>
    <g transform="matrix(1.03831,0,0,1,0,0)">
        <rect x="0" y="651.445" width="903" height="2" style="fill:rgb(47,46,65);"/>
    </g>
    <g transform="matrix(0.866025,0.5,-0.5,0.866025,190.958,-154.425)">
        <rect x="170.202" y="536.585" width="98" height="98" style="fill:rgb(242,242,242);"/>
    </g>
    <g transform="matrix(1,0,0,1,-131.202,-123.278)">
        <path d="M239.202,669.585C227.133,669.585 217.202,659.653 217.202,647.585C217.202,635.516 227.133,625.585 239.202,625.585C251.271,625.585 261.202,635.516 261.202,647.585C261.188,659.648 251.265,669.571 239.202,669.585ZM239.202,627.585C228.23,627.585 219.202,636.613 219.202,647.585C219.202,658.556 228.23,667.585 239.202,667.585C250.173,667.585 259.202,658.556 259.202,647.585C259.19,636.618 250.169,627.597 239.202,627.585Z" style="fill:rgb(63,61,86);fill-rule:nonzero;"/>
    </g>
</svg>
